<mxfile host="app.diagrams.net" agent="Mozilla/5.0 (Windows NT 10.0; Win64; x64) AppleWebKit/537.36 (KHTML, like Gecko) Chrome/129.0.0.0 Safari/537.36" version="24.7.16">
  <diagram name="Page-1" id="5l9noZ6YuEke5uppo-c-">
    <mxGraphModel dx="594" dy="1578" grid="1" gridSize="10" guides="1" tooltips="1" connect="1" arrows="1" fold="1" page="1" pageScale="1" pageWidth="850" pageHeight="1100" math="0" shadow="0">
      <root>
        <mxCell id="0" />
        <mxCell id="1" parent="0" />
        <mxCell id="rL7VeC7IucTVd_eHaZTc-4" value="" style="edgeStyle=orthogonalEdgeStyle;rounded=0;orthogonalLoop=1;jettySize=auto;html=1;" edge="1" parent="1" source="rL7VeC7IucTVd_eHaZTc-1" target="rL7VeC7IucTVd_eHaZTc-2">
          <mxGeometry relative="1" as="geometry" />
        </mxCell>
        <mxCell id="rL7VeC7IucTVd_eHaZTc-1" value="Website Load" style="rounded=0;whiteSpace=wrap;html=1;" vertex="1" parent="1">
          <mxGeometry x="240" y="120" width="160" height="80" as="geometry" />
        </mxCell>
        <mxCell id="rL7VeC7IucTVd_eHaZTc-5" value="" style="edgeStyle=orthogonalEdgeStyle;rounded=0;orthogonalLoop=1;jettySize=auto;html=1;" edge="1" parent="1" source="rL7VeC7IucTVd_eHaZTc-2" target="rL7VeC7IucTVd_eHaZTc-3">
          <mxGeometry relative="1" as="geometry" />
        </mxCell>
        <mxCell id="rL7VeC7IucTVd_eHaZTc-2" value="Dice Rolled" style="rounded=0;whiteSpace=wrap;html=1;" vertex="1" parent="1">
          <mxGeometry x="240" y="240" width="160" height="80" as="geometry" />
        </mxCell>
        <mxCell id="rL7VeC7IucTVd_eHaZTc-7" value="" style="edgeStyle=orthogonalEdgeStyle;rounded=0;orthogonalLoop=1;jettySize=auto;html=1;" edge="1" parent="1" source="rL7VeC7IucTVd_eHaZTc-3" target="rL7VeC7IucTVd_eHaZTc-6">
          <mxGeometry relative="1" as="geometry" />
        </mxCell>
        <mxCell id="rL7VeC7IucTVd_eHaZTc-3" value="Images Loaded" style="rounded=0;whiteSpace=wrap;html=1;" vertex="1" parent="1">
          <mxGeometry x="240" y="360" width="160" height="80" as="geometry" />
        </mxCell>
        <mxCell id="rL7VeC7IucTVd_eHaZTc-9" value="" style="edgeStyle=orthogonalEdgeStyle;rounded=0;orthogonalLoop=1;jettySize=auto;html=1;" edge="1" parent="1" source="rL7VeC7IucTVd_eHaZTc-6" target="rL7VeC7IucTVd_eHaZTc-8">
          <mxGeometry relative="1" as="geometry" />
        </mxCell>
        <mxCell id="rL7VeC7IucTVd_eHaZTc-6" value="Values Compared" style="rounded=0;whiteSpace=wrap;html=1;" vertex="1" parent="1">
          <mxGeometry x="240" y="480" width="160" height="80" as="geometry" />
        </mxCell>
        <mxCell id="rL7VeC7IucTVd_eHaZTc-8" value="Result to h1" style="rounded=0;whiteSpace=wrap;html=1;" vertex="1" parent="1">
          <mxGeometry x="240" y="600" width="160" height="80" as="geometry" />
        </mxCell>
      </root>
    </mxGraphModel>
  </diagram>
</mxfile>
